<svg width="128" height="128" viewBox="0 0 128 128" fill="none" xmlns="http://www.w3.org/2000/svg">
<path fill-rule="evenodd" clip-rule="evenodd" d="M63.8854 45.5908C53.7182 45.5908 45.476 53.833 45.476 64.0002C45.476 74.1675 53.7182 82.4097 63.8854 82.4097C74.0527 82.4097 82.2948 74.1675 82.2948 64.0002C82.2948 53.833 74.0527 45.5908 63.8854 45.5908ZM53.8439 64.0002C53.8439 58.4545 58.3396 53.9587 63.8854 53.9587C69.4312 53.9587 73.9269 58.4545 73.9269 64.0002C73.9269 69.546 69.4312 74.0418 63.8854 74.0418C58.3396 74.0418 53.8439 69.546 53.8439 64.0002Z" fill="white"/>
<path fill-rule="evenodd" clip-rule="evenodd" d="M63.8855 15.4663C60.2803 15.4663 56.7621 15.8602 53.3736 16.6087C50.6354 17.2136 48.8232 19.644 48.8232 22.2982V28.5676C46.1074 29.7233 43.5529 31.1814 41.2017 32.8988L35.6802 29.711C33.4055 28.3977 30.4315 28.7295 28.5321 30.7482C23.2946 36.3147 19.3534 43.124 17.1997 50.6925C16.4504 53.3261 17.6526 56.0201 19.8997 57.3174L25.5435 60.5758C25.4439 61.7048 25.393 62.8471 25.393 64.0002C25.393 65.6928 25.5025 67.3614 25.7151 68.9992L20.3324 72.1068C18.0224 73.4405 16.8253 76.2449 17.6911 78.9263C20.1043 86.3998 24.2772 93.0754 29.7161 98.4675C31.6288 100.364 34.511 100.638 36.7234 99.3607L42.5128 96.0182C44.4933 97.3426 46.6044 98.4887 48.8232 99.4329V105.702C48.8232 108.357 50.6354 110.787 53.3736 111.392C56.7621 112.14 60.2803 112.534 63.8855 112.534C68.1707 112.534 72.3323 111.978 76.2992 110.931C78.922 110.239 80.6213 107.867 80.6213 105.297V98.6728C82.5139 97.7578 84.3195 96.6928 86.0228 95.4935L91.6555 98.7455C93.9039 100.044 96.8391 99.7365 98.7448 97.7696C104.067 92.2765 108.106 85.5238 110.37 77.9957C111.168 75.3414 109.968 72.6008 107.694 71.2881L102.162 68.0945C102.305 66.7481 102.378 65.3821 102.378 64.0002C102.378 63.1612 102.351 62.3279 102.298 61.5013L108.1 58.1517C110.31 56.8754 111.514 54.2445 110.831 51.6407C108.828 44.0166 105.021 37.1298 99.8985 31.4634C98.0094 29.3737 94.9825 29.0076 92.6721 30.3415L87.2978 33.4444C85.2291 31.8571 82.9935 30.4746 80.6213 29.3277V22.7032C80.6213 20.1331 78.922 17.7615 76.2992 17.0694C72.3323 16.0227 68.1707 15.4663 63.8855 15.4663ZM57.1911 34.4658V24.389C59.3659 24.0244 61.6021 23.8342 63.8855 23.8342C66.7586 23.8342 69.5574 24.1352 72.2534 24.7063V34.9109L74.906 35.9541C78.2997 37.2888 81.3958 39.2238 84.0624 41.6308L86.3219 43.6703L95.0347 38.6399C98.2022 42.5252 100.655 47.0109 102.197 51.8971L93.3325 57.015L93.7209 59.8061C93.9113 61.1746 94.01 62.5746 94.01 64.0002C94.01 65.8953 93.8356 67.7457 93.5029 69.5376L92.9631 72.4457L101.726 77.5049C100.007 82.3195 97.3942 86.7133 94.0834 90.4849L85.2814 85.403L83.0415 87.2509C80.6162 89.2517 77.875 90.8787 74.906 92.0464L72.2534 93.0896V103.294C69.5574 103.865 66.7586 104.166 63.8855 104.166C61.6021 104.166 59.3659 103.976 57.1911 103.612V93.5347L54.3329 92.5798C51.0511 91.4835 48.0181 89.836 45.3443 87.7447L43.1201 86.0052L34.2583 91.1215C30.8644 87.4163 28.1584 83.0754 26.3388 78.3015L35.0514 73.2714L34.4194 70.298C33.9885 68.2705 33.7609 66.1643 33.7609 64.0002C33.7609 62.3031 33.9009 60.6419 34.169 59.0265L34.6435 56.1672L25.8399 51.0845C27.484 46.2398 30.0296 41.8073 33.2796 37.9875L42.042 43.0464L44.2913 41.1181C47.2112 38.615 50.6121 36.6637 54.3329 35.4207L57.1911 34.4658Z" fill="white"/>
</svg>
